<svg width="250" height="245" viewBox="0 0 250 245" fill="none" xmlns="http://www.w3.org/2000/svg">
<circle opacity="0.3" cx="157.693" cy="152.308" r="92.3078" fill="#4F39F6"/>
<path fill-rule="evenodd" clip-rule="evenodd" d="M148.281 4.61548C180.017 4.61548 205.748 41.8109 205.748 87.6925V189.231H177.014V87.6925C177.014 83.6355 176.77 79.6617 176.382 75.7571C169.166 83.3572 158.97 87.6877 148.281 87.6925C132.412 87.6925 119.548 75.2942 119.548 60.0001V32.3078C119.548 24.9633 122.575 17.9197 127.964 12.7264C133.352 7.53305 140.661 4.61548 148.281 4.61548Z" stroke="#161C2D" stroke-width="9.23077" stroke-linecap="round" stroke-linejoin="round"/>
<path fill-rule="evenodd" clip-rule="evenodd" d="M62.0819 4.61548C30.3459 4.61548 4.61523 41.8109 4.61523 87.6925V189.231H33.3486V87.6925C33.3486 83.6355 33.5928 79.6617 33.9807 75.7571C41.1968 83.3572 51.3927 87.6877 62.0819 87.6925C77.9509 87.6925 90.8152 75.2942 90.8152 60.0001V32.3078C90.8152 17.0138 77.9509 4.61548 62.0819 4.61548Z" stroke="#161C2D" stroke-width="9.23077" stroke-linecap="round" stroke-linejoin="round"/>
<path d="M62.08 36.9233V55.3849" stroke="#161C2D" stroke-width="9.23077" stroke-linecap="round" stroke-linejoin="round"/>
<path d="M148.281 36.9233V55.3849" stroke="#161C2D" stroke-width="9.23077" stroke-linecap="round" stroke-linejoin="round"/>
</svg>
